<svg xmlns="http://www.w3.org/2000/svg" viewBox="0 0 512 512" width="128px" height="128px"><path fill="#2979FF" d="M146.543 63.023c-25.32.276-46.767 13.474-62.514 25.48s-26.283 24.08-26.283 24.08l-.37.422-.338.45S42.332 132.55 32.996 156c-4.668 11.72-8.38 24.788-7.057 38.744s9.87 28.987 25 36.723c.416.213.37.212.592.344-.46 2.604-3.475 9.722-6.512 18.693-3.103 9.168-6.017 21.967-.52 35.152 5.15 12.35 16.673 22.004 33.746 29.66.23.832.532 1.746.793 4.05.696 6.146.674 15.908 1.564 26.396s2.52 22.136 9.133 33.064 19.734 19.68 35.463 20.97c.648.053.403.077.902.146.12.957.22 1.397.307 2.86.353 5.858 1.544 14.997 6.826 24.19s14.148 18.034 27.72 26.316c17.104 10.437 30.155 15.83 42.154 17.178s24.067-3.277 30.3-11.06c11.297-14.108 7.963-28.493 7.217-31.182l.863-280.393s-.99-14.748-10.357-30.994-27.417-35.412-59.29-48.918c-8.355-3.54-17.024-5.002-25.31-4.912zm221.947 0c-8.285-.1-16.955 1.37-25.31 4.912-31.872 13.506-49.92 32.67-59.287 48.918s-10.357 30.994-10.357 30.994l-.02.4.883 279.98c-.744 2.68-4.085 17.072 7.217 31.186 6.232 7.782 18.3 12.406 30.3 11.06s25.05-6.74 42.154-17.178c13.573-8.282 22.44-17.122 27.72-26.316s6.473-18.333 6.826-24.19c.088-1.465.188-1.905.307-2.86.5-.07.256-.093.904-.146 15.73-1.29 28.85-10.042 35.463-20.97s8.24-22.574 9.13-33.062.87-20.25 1.564-26.396c.26-2.305.563-3.22.793-4.05 17.073-7.656 28.596-17.31 33.746-29.66 5.498-13.185 2.583-25.985-.52-35.152-3.036-8.97-6.05-16.1-6.512-18.693.223-.132.175-.13.592-.344 15.14-7.736 23.686-22.766 25-36.723S486.705 167.7 482.037 156c-9.336-23.44-24.043-42.54-24.043-42.54l-.34-.447-.37-.422s-10.535-12.073-26.28-24.078S393.81 63.3 368.5 63.023zM146.893 95.02c4.39-.048 8.424.663 12.473 2.38 26.04 11.034 37.945 24.844 44.053 35.437 6.03 10.456 6.096 16.288 6.098 16.44l-.893 282.045.248 1.402s-.72 4.673-.645 6.172c-.364-.055-.275-.073-1.537-.215-4.367-.5-14.208-3.635-29.057-12.695-10.297-6.283-14.587-11.362-16.643-14.94s-2.383-6.063-2.63-10.176 1.082-10.565-4.18-19.432c-2.63-4.434-7.248-8.243-11.88-10.273s-9.268-2.847-14.48-3.273c-7.49-.614-8.542-2.078-10.7-5.643s-3.9-10.687-4.623-19.203-.602-17.997-1.654-27.29c-.526-4.646-1.264-9.32-3.437-14.396s-6.688-11.152-13.63-14.02c-14.73-6.086-18.616-11.332-19.732-14s-.88-6.147 1.295-12.576 6.43-13.98 7.973-24.695c.77-5.357.54-12.15-2.63-18.54S71.85 206.2 65.5 202.96c-6.394-3.267-7.167-5.5-7.713-11.248s1.322-14.83 4.928-23.883c7.063-17.733 19.02-33.933 19.52-34.61.572-.646 8.604-9.68 21.184-19.27 13.034-9.937 30.052-18.784 43.463-18.93zm221.248 0c13.41.146 30.43 8.993 43.463 18.93 12.586 9.596 20.625 18.64 21.188 19.277.508.687 12.457 16.875 19.518 34.602 3.606 9.053 5.475 18.134 4.93 23.883s-1.32 7.98-7.715 11.248c-6.34 3.24-12.003 8.17-15.174 14.56s-3.4 13.182-2.63 18.54c1.542 10.715 5.795 18.264 7.97 24.693s2.413 9.9 1.297 12.578-5.006 7.923-19.734 14c-6.943 2.87-11.455 8.945-13.63 14.02s-2.912 9.75-3.437 14.396c-1.052 9.292-.93 18.773-1.654 27.29s-2.464 15.638-4.62 19.203-3.21 5.03-10.7 5.643c-5.21.427-9.85 1.243-14.48 3.273s-9.246 5.84-11.877 10.273c-5.262 8.867-3.934 15.318-4.182 19.432s-.577 6.596-2.633 10.174-6.344 8.658-16.64 14.94c-14.85 9.06-24.692 12.205-29.06 12.695-1.262.142-1.17.16-1.535.215.077-1.5-.645-6.172-.645-6.172l.246-1.402-.89-282.057c.001-.165.074-5.984 6.096-16.428 6.108-10.593 18.01-24.403 44.05-35.437 4.047-1.715 8.083-2.427 12.475-2.38z"/></svg>
